<mxfile host="app.diagrams.net" agent="Mozilla/5.0 (Windows NT 10.0; Win64; x64) AppleWebKit/537.36 (KHTML, like Gecko) Chrome/136.0.0.0 Safari/537.36" version="27.0.3">
  <diagram name="Page-1" id="2ca16b54-16f6-2749-3443-fa8db7711227">
    <mxGraphModel dx="5777" dy="2543" grid="1" gridSize="10" guides="1" tooltips="1" connect="1" arrows="1" fold="1" page="1" pageScale="1" pageWidth="1100" pageHeight="850" background="none" math="0" shadow="0">
      <root>
        <mxCell id="0" />
        <mxCell id="1" parent="0" />
        <mxCell id="2ed32ef02a7f4228-2" value="&lt;div style=&quot;box-sizing: border-box; width: 100%; background: rgb(228, 228, 228); padding: 2px;&quot;&gt;Aeroportos&lt;/div&gt;&lt;table style=&quot;width: 100% ; font-size: 1em&quot; cellpadding=&quot;2&quot; cellspacing=&quot;0&quot;&gt;&lt;tbody&gt;&lt;tr&gt;&lt;td&gt;PK&lt;/td&gt;&lt;td&gt;uniqueId&lt;/td&gt;&lt;/tr&gt;&lt;tr&gt;&lt;td&gt;FK1&lt;/td&gt;&lt;td&gt;foreignKey&lt;/td&gt;&lt;/tr&gt;&lt;tr&gt;&lt;td&gt;&lt;/td&gt;&lt;td&gt;fieldname&lt;/td&gt;&lt;/tr&gt;&lt;tr&gt;&lt;td&gt;&lt;br&gt;&lt;/td&gt;&lt;td&gt;fieldname&lt;br&gt;&lt;/td&gt;&lt;/tr&gt;&lt;tr&gt;&lt;td&gt;FK1&lt;br&gt;&lt;/td&gt;&lt;td&gt;foreignKey&lt;br&gt;&lt;/td&gt;&lt;/tr&gt;&lt;tr&gt;&lt;td&gt;FK1&lt;br&gt;&lt;/td&gt;&lt;td&gt;foreignKey&lt;br&gt;&lt;/td&gt;&lt;/tr&gt;&lt;/tbody&gt;&lt;/table&gt;" style="verticalAlign=top;align=left;overflow=fill;html=1;rounded=0;shadow=0;comic=0;labelBackgroundColor=none;strokeWidth=1;fontFamily=Verdana;fontSize=12" parent="1" vertex="1">
          <mxGeometry x="1090" y="30" width="180" height="130" as="geometry" />
        </mxCell>
        <mxCell id="Xm3tBWq0qwTZGbFQvJrr-5" value="" style="endArrow=none;html=1;rounded=0;" parent="1" edge="1">
          <mxGeometry width="50" height="50" relative="1" as="geometry">
            <mxPoint x="1080" y="220" as="sourcePoint" />
            <mxPoint x="1180" y="220" as="targetPoint" />
          </mxGeometry>
        </mxCell>
        <mxCell id="Xm3tBWq0qwTZGbFQvJrr-7" value="" style="endArrow=classic;html=1;rounded=0;shape=link;" parent="1" edge="1">
          <mxGeometry width="50" height="50" relative="1" as="geometry">
            <mxPoint x="1080" y="300" as="sourcePoint" />
            <mxPoint x="1180" y="300" as="targetPoint" />
          </mxGeometry>
        </mxCell>
        <mxCell id="Xm3tBWq0qwTZGbFQvJrr-26" value="" style="group" parent="1" vertex="1" connectable="0">
          <mxGeometry x="1079" y="251.5" width="107.5" height="10" as="geometry" />
        </mxCell>
        <mxCell id="Xm3tBWq0qwTZGbFQvJrr-24" value="" style="endArrow=none;html=1;rounded=0;" parent="Xm3tBWq0qwTZGbFQvJrr-26" edge="1">
          <mxGeometry width="50" height="50" relative="1" as="geometry">
            <mxPoint y="4.939999999999998" as="sourcePoint" />
            <mxPoint x="100" y="4.939999999999998" as="targetPoint" />
          </mxGeometry>
        </mxCell>
        <mxCell id="Xm3tBWq0qwTZGbFQvJrr-25" value="" style="verticalLabelPosition=bottom;verticalAlign=top;html=1;shape=mxgraph.basic.acute_triangle;dx=0.5;rotation=90;fillColor=#000000;" parent="Xm3tBWq0qwTZGbFQvJrr-26" vertex="1">
          <mxGeometry x="99" y="1.5" width="10" height="7" as="geometry" />
        </mxCell>
        <mxCell id="Xm3tBWq0qwTZGbFQvJrr-27" value="" style="group" parent="1" vertex="1" connectable="0">
          <mxGeometry x="1078" y="334.5" width="107.5" height="10" as="geometry" />
        </mxCell>
        <mxCell id="Xm3tBWq0qwTZGbFQvJrr-9" value="" style="endArrow=classic;html=1;rounded=0;shape=link;" parent="Xm3tBWq0qwTZGbFQvJrr-27" edge="1">
          <mxGeometry width="50" height="50" relative="1" as="geometry">
            <mxPoint y="4.930000000000007" as="sourcePoint" />
            <mxPoint x="100" y="4.930000000000007" as="targetPoint" />
          </mxGeometry>
        </mxCell>
        <mxCell id="Xm3tBWq0qwTZGbFQvJrr-23" value="" style="verticalLabelPosition=bottom;verticalAlign=top;html=1;shape=mxgraph.basic.acute_triangle;dx=0.5;rotation=90;fillColor=#000000;" parent="Xm3tBWq0qwTZGbFQvJrr-27" vertex="1">
          <mxGeometry x="99" y="1.5" width="10" height="7" as="geometry" />
        </mxCell>
        <mxCell id="Xm3tBWq0qwTZGbFQvJrr-28" value="" style="rhombus;whiteSpace=wrap;html=1;strokeColor=default;align=center;verticalAlign=top;fontFamily=Helvetica;fontSize=12;fontColor=default;fillColor=#FFFFFF;" parent="1" vertex="1">
          <mxGeometry x="1340" y="260" width="80" height="80" as="geometry" />
        </mxCell>
        <mxCell id="Xm3tBWq0qwTZGbFQvJrr-31" value="" style="endArrow=none;html=1;rounded=0;" parent="1" edge="1">
          <mxGeometry width="50" height="50" relative="1" as="geometry">
            <mxPoint x="1090" y="230" as="sourcePoint" />
            <mxPoint x="1190" y="230" as="targetPoint" />
          </mxGeometry>
        </mxCell>
        <mxCell id="cWytQhBNAw67fKuN8wvv-1" value="Avião" style="rounded=0;whiteSpace=wrap;html=1;" vertex="1" parent="1">
          <mxGeometry x="-305" y="381.75" width="120" height="60" as="geometry" />
        </mxCell>
        <mxCell id="cWytQhBNAw67fKuN8wvv-2" value="Modelo" style="ellipse;whiteSpace=wrap;html=1;" vertex="1" parent="1">
          <mxGeometry x="-350" y="283.25" width="80" height="60" as="geometry" />
        </mxCell>
        <mxCell id="cWytQhBNAw67fKuN8wvv-3" value="Marca" style="ellipse;whiteSpace=wrap;html=1;" vertex="1" parent="1">
          <mxGeometry x="-255" y="271.5" width="80" height="60" as="geometry" />
        </mxCell>
        <mxCell id="cWytQhBNAw67fKuN8wvv-4" value="&lt;u&gt;Número de serie&lt;/u&gt;" style="ellipse;whiteSpace=wrap;html=1;" vertex="1" parent="1">
          <mxGeometry x="-424" y="331.5" width="80" height="60" as="geometry" />
        </mxCell>
        <mxCell id="cWytQhBNAw67fKuN8wvv-5" value="" style="endArrow=none;html=1;rounded=0;entryX=0.5;entryY=0;entryDx=0;entryDy=0;exitX=1;exitY=1;exitDx=0;exitDy=0;" edge="1" parent="1" source="cWytQhBNAw67fKuN8wvv-2" target="cWytQhBNAw67fKuN8wvv-1">
          <mxGeometry width="50" height="50" relative="1" as="geometry">
            <mxPoint x="-225" y="321.75" as="sourcePoint" />
            <mxPoint x="-225" y="371.75" as="targetPoint" />
          </mxGeometry>
        </mxCell>
        <mxCell id="cWytQhBNAw67fKuN8wvv-6" value="" style="endArrow=none;html=1;rounded=0;entryX=0.75;entryY=0;entryDx=0;entryDy=0;exitX=0.5;exitY=1;exitDx=0;exitDy=0;" edge="1" parent="1" source="cWytQhBNAw67fKuN8wvv-3" target="cWytQhBNAw67fKuN8wvv-1">
          <mxGeometry width="50" height="50" relative="1" as="geometry">
            <mxPoint x="-165" y="361.75" as="sourcePoint" />
            <mxPoint x="-165" y="411.75" as="targetPoint" />
          </mxGeometry>
        </mxCell>
        <mxCell id="cWytQhBNAw67fKuN8wvv-7" value="" style="endArrow=none;html=1;rounded=0;entryX=0;entryY=0.25;entryDx=0;entryDy=0;exitX=1;exitY=1;exitDx=0;exitDy=0;" edge="1" parent="1" source="cWytQhBNAw67fKuN8wvv-4" target="cWytQhBNAw67fKuN8wvv-1">
          <mxGeometry width="50" height="50" relative="1" as="geometry">
            <mxPoint x="-235" y="331.75" as="sourcePoint" />
            <mxPoint x="-235" y="381.75" as="targetPoint" />
          </mxGeometry>
        </mxCell>
        <mxCell id="cWytQhBNAw67fKuN8wvv-8" value="" style="endArrow=none;html=1;rounded=0;entryX=0.5;entryY=0;entryDx=0;entryDy=0;exitX=0.5;exitY=1;exitDx=0;exitDy=0;" edge="1" parent="1" source="cWytQhBNAw67fKuN8wvv-1" target="cWytQhBNAw67fKuN8wvv-9">
          <mxGeometry width="50" height="50" relative="1" as="geometry">
            <mxPoint x="-201" y="441.75" as="sourcePoint" />
            <mxPoint x="-251" y="476.75" as="targetPoint" />
            <Array as="points" />
          </mxGeometry>
        </mxCell>
        <mxCell id="cWytQhBNAw67fKuN8wvv-9" value="" style="rhombus;whiteSpace=wrap;html=1;strokeColor=default;align=center;verticalAlign=top;fontFamily=Helvetica;fontSize=12;fontColor=default;fillColor=#FFFFFF;" vertex="1" parent="1">
          <mxGeometry x="-270" y="491.75" width="50" height="50" as="geometry" />
        </mxCell>
        <mxCell id="cWytQhBNAw67fKuN8wvv-10" value="" style="group;strokeColor=none;rotation=-90;allowArrows=0;connectable=1;dashed=1;" vertex="1" connectable="0" parent="1">
          <mxGeometry x="-295" y="587.75" width="100" height="10" as="geometry" />
        </mxCell>
        <mxCell id="cWytQhBNAw67fKuN8wvv-11" value="" style="endArrow=classic;html=1;rounded=0;shape=link;exitX=0.5;exitY=0;exitDx=0;exitDy=0;" edge="1" parent="cWytQhBNAw67fKuN8wvv-10" source="cWytQhBNAw67fKuN8wvv-14">
          <mxGeometry width="50" height="50" relative="1" as="geometry">
            <mxPoint x="49.99999999999999" y="55" as="sourcePoint" />
            <mxPoint x="49.99999999999999" y="-38" as="targetPoint" />
          </mxGeometry>
        </mxCell>
        <mxCell id="cWytQhBNAw67fKuN8wvv-12" value="" style="verticalLabelPosition=bottom;verticalAlign=top;html=1;shape=mxgraph.basic.acute_triangle;dx=0.5;rotation=0;fillColor=#000000;" vertex="1" parent="cWytQhBNAw67fKuN8wvv-10">
          <mxGeometry x="45.349999999999994" y="-45" width="9.30232558139535" height="7" as="geometry" />
        </mxCell>
        <mxCell id="cWytQhBNAw67fKuN8wvv-13" value="" style="group" vertex="1" connectable="0" parent="1">
          <mxGeometry x="-305" y="611.75" width="120" height="60" as="geometry" />
        </mxCell>
        <mxCell id="cWytQhBNAw67fKuN8wvv-14" value="" style="rounded=0;whiteSpace=wrap;html=1;" vertex="1" parent="cWytQhBNAw67fKuN8wvv-13">
          <mxGeometry width="120" height="60" as="geometry" />
        </mxCell>
        <mxCell id="cWytQhBNAw67fKuN8wvv-15" value="Fila" style="rounded=0;whiteSpace=wrap;html=1;" vertex="1" parent="cWytQhBNAw67fKuN8wvv-13">
          <mxGeometry x="5" y="5" width="110" height="50" as="geometry" />
        </mxCell>
        <mxCell id="cWytQhBNAw67fKuN8wvv-16" value="" style="rhombus;whiteSpace=wrap;html=1;strokeColor=default;align=center;verticalAlign=top;fontFamily=Helvetica;fontSize=12;fontColor=default;fillColor=#FFFFFF;" vertex="1" parent="1">
          <mxGeometry x="-270" y="761.75" width="50" height="50" as="geometry" />
        </mxCell>
        <mxCell id="cWytQhBNAw67fKuN8wvv-17" value="" style="group;strokeColor=none;rotation=-90;allowArrows=0;connectable=1;dashed=1;" vertex="1" connectable="0" parent="1">
          <mxGeometry x="-295" y="857.75" width="100" height="10" as="geometry" />
        </mxCell>
        <mxCell id="cWytQhBNAw67fKuN8wvv-18" value="" style="endArrow=classic;html=1;rounded=0;shape=link;exitX=0.5;exitY=0;exitDx=0;exitDy=0;" edge="1" parent="cWytQhBNAw67fKuN8wvv-17" source="cWytQhBNAw67fKuN8wvv-21">
          <mxGeometry width="50" height="50" relative="1" as="geometry">
            <mxPoint x="49.99999999999999" y="55" as="sourcePoint" />
            <mxPoint x="49.99999999999999" y="-38" as="targetPoint" />
          </mxGeometry>
        </mxCell>
        <mxCell id="cWytQhBNAw67fKuN8wvv-19" value="" style="verticalLabelPosition=bottom;verticalAlign=top;html=1;shape=mxgraph.basic.acute_triangle;dx=0.5;rotation=0;fillColor=#000000;" vertex="1" parent="cWytQhBNAw67fKuN8wvv-17">
          <mxGeometry x="45.349999999999994" y="-45" width="9.30232558139535" height="7" as="geometry" />
        </mxCell>
        <mxCell id="cWytQhBNAw67fKuN8wvv-20" value="" style="group" vertex="1" connectable="0" parent="1">
          <mxGeometry x="-305" y="881.75" width="120" height="60" as="geometry" />
        </mxCell>
        <mxCell id="cWytQhBNAw67fKuN8wvv-21" value="" style="rounded=0;whiteSpace=wrap;html=1;" vertex="1" parent="cWytQhBNAw67fKuN8wvv-20">
          <mxGeometry width="120" height="60" as="geometry" />
        </mxCell>
        <mxCell id="cWytQhBNAw67fKuN8wvv-22" value="Assento" style="rounded=0;whiteSpace=wrap;html=1;" vertex="1" parent="cWytQhBNAw67fKuN8wvv-20">
          <mxGeometry x="5" y="5" width="110" height="50" as="geometry" />
        </mxCell>
        <mxCell id="cWytQhBNAw67fKuN8wvv-23" value="" style="endArrow=none;html=1;rounded=0;exitX=0.5;exitY=1;exitDx=0;exitDy=0;entryX=0.5;entryY=0;entryDx=0;entryDy=0;" edge="1" parent="1" source="cWytQhBNAw67fKuN8wvv-14" target="cWytQhBNAw67fKuN8wvv-16">
          <mxGeometry width="50" height="50" relative="1" as="geometry">
            <mxPoint x="-265" y="681.75" as="sourcePoint" />
            <mxPoint x="-265" y="751.75" as="targetPoint" />
          </mxGeometry>
        </mxCell>
        <mxCell id="cWytQhBNAw67fKuN8wvv-24" value="&lt;u&gt;Número da Fila&lt;/u&gt;" style="ellipse;whiteSpace=wrap;html=1;" vertex="1" parent="1">
          <mxGeometry x="-415" y="611.75" width="80" height="60" as="geometry" />
        </mxCell>
        <mxCell id="cWytQhBNAw67fKuN8wvv-25" value="" style="endArrow=none;html=1;rounded=0;exitX=1;exitY=0.5;exitDx=0;exitDy=0;entryX=0;entryY=0.5;entryDx=0;entryDy=0;" edge="1" parent="1" source="cWytQhBNAw67fKuN8wvv-24" target="cWytQhBNAw67fKuN8wvv-14">
          <mxGeometry width="50" height="50" relative="1" as="geometry">
            <mxPoint x="-95" y="471.75" as="sourcePoint" />
            <mxPoint x="-45" y="421.75" as="targetPoint" />
          </mxGeometry>
        </mxCell>
        <mxCell id="cWytQhBNAw67fKuN8wvv-26" value="&lt;u&gt;Letra do assento&lt;/u&gt;" style="ellipse;whiteSpace=wrap;html=1;" vertex="1" parent="1">
          <mxGeometry x="-415" y="881.75" width="80" height="60" as="geometry" />
        </mxCell>
        <mxCell id="cWytQhBNAw67fKuN8wvv-27" value="" style="endArrow=none;html=1;rounded=0;exitX=1;exitY=0.5;exitDx=0;exitDy=0;entryX=0;entryY=0.5;entryDx=0;entryDy=0;" edge="1" parent="1" source="cWytQhBNAw67fKuN8wvv-26">
          <mxGeometry width="50" height="50" relative="1" as="geometry">
            <mxPoint x="-95" y="741.75" as="sourcePoint" />
            <mxPoint x="-305" y="911.75" as="targetPoint" />
          </mxGeometry>
        </mxCell>
        <mxCell id="cWytQhBNAw67fKuN8wvv-28" value="Separação das classes" style="ellipse;whiteSpace=wrap;html=1;" vertex="1" parent="1">
          <mxGeometry x="-430" y="407" width="80" height="60" as="geometry" />
        </mxCell>
        <mxCell id="cWytQhBNAw67fKuN8wvv-29" value="" style="endArrow=none;html=1;rounded=0;entryX=0;entryY=0.75;entryDx=0;entryDy=0;exitX=1;exitY=0.5;exitDx=0;exitDy=0;" edge="1" parent="1" source="cWytQhBNAw67fKuN8wvv-28" target="cWytQhBNAw67fKuN8wvv-1">
          <mxGeometry width="50" height="50" relative="1" as="geometry">
            <mxPoint x="-337" y="362.75" as="sourcePoint" />
            <mxPoint x="-284" y="391.75" as="targetPoint" />
          </mxGeometry>
        </mxCell>
        <mxCell id="cWytQhBNAw67fKuN8wvv-30" value="" style="endArrow=none;html=1;rounded=0;entryX=0.5;entryY=0;entryDx=0;entryDy=0;exitX=0.5;exitY=1;exitDx=0;exitDy=0;" edge="1" parent="1" source="cWytQhBNAw67fKuN8wvv-45" target="cWytQhBNAw67fKuN8wvv-31">
          <mxGeometry width="50" height="50" relative="1" as="geometry">
            <mxPoint x="-303" y="311.5" as="sourcePoint" />
            <mxPoint x="-263.8299999999999" y="351.5" as="targetPoint" />
          </mxGeometry>
        </mxCell>
        <mxCell id="cWytQhBNAw67fKuN8wvv-31" value="" style="rhombus;whiteSpace=wrap;html=1;strokeColor=default;align=center;verticalAlign=top;fontFamily=Helvetica;fontSize=12;fontColor=default;fillColor=#FFFFFF;" vertex="1" parent="1">
          <mxGeometry x="-111" y="386.5" width="50" height="50" as="geometry" />
        </mxCell>
        <mxCell id="cWytQhBNAw67fKuN8wvv-32" value="" style="group;strokeColor=none;rotation=-180;allowArrows=0;connectable=1;dashed=1;" vertex="1" connectable="0" parent="1">
          <mxGeometry x="-58" y="407" width="98" height="10" as="geometry" />
        </mxCell>
        <mxCell id="cWytQhBNAw67fKuN8wvv-33" value="" style="endArrow=classic;html=1;rounded=0;shape=link;exitX=0;exitY=0.5;exitDx=0;exitDy=0;" edge="1" parent="cWytQhBNAw67fKuN8wvv-32" source="cWytQhBNAw67fKuN8wvv-36">
          <mxGeometry width="50" height="50" relative="1" as="geometry">
            <mxPoint x="96.03999999999999" y="5" as="sourcePoint" />
            <mxPoint x="4.9" y="5" as="targetPoint" />
          </mxGeometry>
        </mxCell>
        <mxCell id="cWytQhBNAw67fKuN8wvv-34" value="" style="verticalLabelPosition=bottom;verticalAlign=top;html=1;shape=mxgraph.basic.acute_triangle;dx=0.5;rotation=-90;fillColor=#000000;" vertex="1" parent="cWytQhBNAw67fKuN8wvv-32">
          <mxGeometry x="-2.94" y="1" width="9.116279069767442" height="7" as="geometry" />
        </mxCell>
        <mxCell id="cWytQhBNAw67fKuN8wvv-35" value="" style="group" vertex="1" connectable="0" parent="1">
          <mxGeometry x="47" y="381.5" width="120" height="60" as="geometry" />
        </mxCell>
        <mxCell id="cWytQhBNAw67fKuN8wvv-36" value="Voo" style="rounded=0;whiteSpace=wrap;html=1;" vertex="1" parent="cWytQhBNAw67fKuN8wvv-35">
          <mxGeometry width="120" height="60" as="geometry" />
        </mxCell>
        <mxCell id="cWytQhBNAw67fKuN8wvv-37" value="&lt;u&gt;Tempo&lt;/u&gt;&lt;div&gt;&lt;u&gt;Partida&lt;/u&gt;&lt;/div&gt;" style="ellipse;whiteSpace=wrap;html=1;" vertex="1" parent="1">
          <mxGeometry x="-20" y="303" width="80" height="60" as="geometry" />
        </mxCell>
        <mxCell id="cWytQhBNAw67fKuN8wvv-38" value="&lt;u&gt;Tempo&lt;/u&gt;&lt;div&gt;&lt;u&gt;Chegada&lt;/u&gt;&lt;/div&gt;" style="ellipse;whiteSpace=wrap;html=1;" vertex="1" parent="1">
          <mxGeometry x="50" y="261.5" width="80" height="60" as="geometry" />
        </mxCell>
        <mxCell id="cWytQhBNAw67fKuN8wvv-39" value="" style="endArrow=none;html=1;rounded=0;entryX=1;entryY=1;entryDx=0;entryDy=0;exitX=0.25;exitY=0;exitDx=0;exitDy=0;" edge="1" parent="1" source="cWytQhBNAw67fKuN8wvv-36" target="cWytQhBNAw67fKuN8wvv-37">
          <mxGeometry width="50" height="50" relative="1" as="geometry">
            <mxPoint x="127" y="361.5" as="sourcePoint" />
            <mxPoint x="207" y="341.5" as="targetPoint" />
          </mxGeometry>
        </mxCell>
        <mxCell id="cWytQhBNAw67fKuN8wvv-40" value="" style="endArrow=none;html=1;rounded=0;entryX=0.5;entryY=1;entryDx=0;entryDy=0;exitX=0.5;exitY=0;exitDx=0;exitDy=0;" edge="1" parent="1" source="cWytQhBNAw67fKuN8wvv-36" target="cWytQhBNAw67fKuN8wvv-38">
          <mxGeometry width="50" height="50" relative="1" as="geometry">
            <mxPoint x="257" y="417" as="sourcePoint" />
            <mxPoint x="257" y="357" as="targetPoint" />
          </mxGeometry>
        </mxCell>
        <mxCell id="cWytQhBNAw67fKuN8wvv-41" value="&lt;u&gt;Aeroporto Chegada&lt;/u&gt;" style="ellipse;whiteSpace=wrap;html=1;" vertex="1" parent="1">
          <mxGeometry x="204" y="313" width="80" height="60" as="geometry" />
        </mxCell>
        <mxCell id="cWytQhBNAw67fKuN8wvv-42" value="&lt;u&gt;Aeroporto Partida&lt;/u&gt;" style="ellipse;whiteSpace=wrap;html=1;" vertex="1" parent="1">
          <mxGeometry x="146" y="261.75" width="80" height="60" as="geometry" />
        </mxCell>
        <mxCell id="cWytQhBNAw67fKuN8wvv-43" value="" style="endArrow=none;html=1;rounded=0;entryX=0;entryY=1;entryDx=0;entryDy=0;exitX=1;exitY=0.25;exitDx=0;exitDy=0;" edge="1" parent="1" source="cWytQhBNAw67fKuN8wvv-36" target="cWytQhBNAw67fKuN8wvv-41">
          <mxGeometry width="50" height="50" relative="1" as="geometry">
            <mxPoint x="138" y="596.5" as="sourcePoint" />
            <mxPoint x="168" y="556.5" as="targetPoint" />
          </mxGeometry>
        </mxCell>
        <mxCell id="cWytQhBNAw67fKuN8wvv-44" value="" style="endArrow=none;html=1;rounded=0;entryX=0;entryY=1;entryDx=0;entryDy=0;exitX=0.75;exitY=0;exitDx=0;exitDy=0;" edge="1" parent="1" source="cWytQhBNAw67fKuN8wvv-36" target="cWytQhBNAw67fKuN8wvv-42">
          <mxGeometry width="50" height="50" relative="1" as="geometry">
            <mxPoint x="168" y="596.5" as="sourcePoint" />
            <mxPoint x="218" y="572" as="targetPoint" />
          </mxGeometry>
        </mxCell>
        <mxCell id="cWytQhBNAw67fKuN8wvv-45" value="Código de&lt;div&gt;voo&lt;/div&gt;" style="ellipse;whiteSpace=wrap;html=1;" vertex="1" parent="1">
          <mxGeometry x="-126" y="301.5" width="80" height="60" as="geometry" />
        </mxCell>
        <mxCell id="cWytQhBNAw67fKuN8wvv-46" value="" style="endArrow=none;html=1;rounded=0;exitX=1;exitY=0.5;exitDx=0;exitDy=0;entryX=0;entryY=0.5;entryDx=0;entryDy=0;" edge="1" parent="1" source="cWytQhBNAw67fKuN8wvv-1" target="cWytQhBNAw67fKuN8wvv-31">
          <mxGeometry width="50" height="50" relative="1" as="geometry">
            <mxPoint x="-128" y="503.25" as="sourcePoint" />
            <mxPoint x="22" y="503.25" as="targetPoint" />
          </mxGeometry>
        </mxCell>
        <mxCell id="cWytQhBNAw67fKuN8wvv-47" value="Aeroporto" style="rounded=0;whiteSpace=wrap;html=1;" vertex="1" parent="1">
          <mxGeometry x="730" y="788.75" width="120" height="60" as="geometry" />
        </mxCell>
        <mxCell id="cWytQhBNAw67fKuN8wvv-48" value="" style="endArrow=none;html=1;rounded=0;entryX=0;entryY=0.75;entryDx=0;entryDy=0;exitX=1;exitY=0;exitDx=0;exitDy=0;" edge="1" parent="1" source="cWytQhBNAw67fKuN8wvv-49" target="cWytQhBNAw67fKuN8wvv-47">
          <mxGeometry width="50" height="50" relative="1" as="geometry">
            <mxPoint x="665" y="764.5" as="sourcePoint" />
            <mxPoint x="765" y="764.5" as="targetPoint" />
          </mxGeometry>
        </mxCell>
        <mxCell id="cWytQhBNAw67fKuN8wvv-49" value="&lt;u&gt;ID&lt;/u&gt;" style="ellipse;whiteSpace=wrap;html=1;" vertex="1" parent="1">
          <mxGeometry x="626" y="856.5" width="80" height="60" as="geometry" />
        </mxCell>
        <mxCell id="cWytQhBNAw67fKuN8wvv-50" value="Cidade&lt;div&gt;Principal&lt;/div&gt;" style="ellipse;whiteSpace=wrap;html=1;" vertex="1" parent="1">
          <mxGeometry x="696" y="904.25" width="80" height="60" as="geometry" />
        </mxCell>
        <mxCell id="cWytQhBNAw67fKuN8wvv-51" value="" style="endArrow=none;html=1;rounded=0;entryX=0.25;entryY=1;entryDx=0;entryDy=0;exitX=0.5;exitY=0;exitDx=0;exitDy=0;" edge="1" parent="1" source="cWytQhBNAw67fKuN8wvv-50" target="cWytQhBNAw67fKuN8wvv-47">
          <mxGeometry width="50" height="50" relative="1" as="geometry">
            <mxPoint x="735" y="754.5" as="sourcePoint" />
            <mxPoint x="835" y="754.5" as="targetPoint" />
          </mxGeometry>
        </mxCell>
        <mxCell id="cWytQhBNAw67fKuN8wvv-52" value="Nome" style="ellipse;whiteSpace=wrap;html=1;" vertex="1" parent="1">
          <mxGeometry x="786" y="904.25" width="80" height="60" as="geometry" />
        </mxCell>
        <mxCell id="cWytQhBNAw67fKuN8wvv-53" value="" style="endArrow=none;html=1;rounded=0;entryX=0;entryY=0;entryDx=0;entryDy=0;exitX=0.5;exitY=1;exitDx=0;exitDy=0;" edge="1" parent="1" source="cWytQhBNAw67fKuN8wvv-47" target="cWytQhBNAw67fKuN8wvv-52">
          <mxGeometry width="50" height="50" relative="1" as="geometry">
            <mxPoint x="835" y="784.5" as="sourcePoint" />
            <mxPoint x="915" y="784.5" as="targetPoint" />
          </mxGeometry>
        </mxCell>
        <mxCell id="cWytQhBNAw67fKuN8wvv-54" value="" style="rhombus;whiteSpace=wrap;html=1;strokeColor=default;align=center;verticalAlign=top;fontFamily=Helvetica;fontSize=12;fontColor=default;fillColor=#FFFFFF;" vertex="1" parent="1">
          <mxGeometry x="765" y="643.25" width="50" height="50" as="geometry" />
        </mxCell>
        <mxCell id="cWytQhBNAw67fKuN8wvv-55" value="" style="group;strokeColor=none;rotation=90;allowArrows=0;connectable=1;dashed=1;" vertex="1" connectable="0" parent="1">
          <mxGeometry x="740" y="587.25" width="110" height="10" as="geometry" />
        </mxCell>
        <mxCell id="cWytQhBNAw67fKuN8wvv-56" value="" style="endArrow=classic;html=1;rounded=0;shape=link;exitX=0.5;exitY=1;exitDx=0;exitDy=0;" edge="1" parent="cWytQhBNAw67fKuN8wvv-55" source="cWytQhBNAw67fKuN8wvv-61">
          <mxGeometry width="50" height="50" relative="1" as="geometry">
            <mxPoint x="49" y="-21.5" as="sourcePoint" />
            <mxPoint x="50" y="48" as="targetPoint" />
          </mxGeometry>
        </mxCell>
        <mxCell id="cWytQhBNAw67fKuN8wvv-57" value="" style="verticalLabelPosition=bottom;verticalAlign=top;html=1;shape=mxgraph.basic.acute_triangle;dx=0.5;rotation=180;fillColor=#000000;" vertex="1" parent="cWytQhBNAw67fKuN8wvv-55">
          <mxGeometry x="45" y="48" width="9.30232558139535" height="7" as="geometry" />
        </mxCell>
        <mxCell id="cWytQhBNAw67fKuN8wvv-58" value="&lt;u&gt;ID&lt;/u&gt;" style="ellipse;whiteSpace=wrap;html=1;" vertex="1" parent="1">
          <mxGeometry x="750" y="407" width="80" height="60" as="geometry" />
        </mxCell>
        <mxCell id="cWytQhBNAw67fKuN8wvv-59" value="" style="endArrow=none;html=1;rounded=0;entryX=0.5;entryY=0;entryDx=0;entryDy=0;exitX=0.5;exitY=1;exitDx=0;exitDy=0;" edge="1" parent="1" source="cWytQhBNAw67fKuN8wvv-58" target="cWytQhBNAw67fKuN8wvv-61">
          <mxGeometry width="50" height="50" relative="1" as="geometry">
            <mxPoint x="750" y="467" as="sourcePoint" />
            <mxPoint x="750" y="517" as="targetPoint" />
          </mxGeometry>
        </mxCell>
        <mxCell id="cWytQhBNAw67fKuN8wvv-60" value="" style="group" vertex="1" connectable="0" parent="1">
          <mxGeometry x="730" y="507" width="120" height="60" as="geometry" />
        </mxCell>
        <mxCell id="cWytQhBNAw67fKuN8wvv-61" value="" style="rounded=0;whiteSpace=wrap;html=1;" vertex="1" parent="cWytQhBNAw67fKuN8wvv-60">
          <mxGeometry width="120" height="60" as="geometry" />
        </mxCell>
        <mxCell id="cWytQhBNAw67fKuN8wvv-62" value="Terminal" style="rounded=0;whiteSpace=wrap;html=1;" vertex="1" parent="cWytQhBNAw67fKuN8wvv-60">
          <mxGeometry x="4.649999999999977" y="5" width="110" height="50" as="geometry" />
        </mxCell>
        <mxCell id="cWytQhBNAw67fKuN8wvv-63" value="" style="endArrow=none;html=1;rounded=0;exitX=0.5;exitY=1;exitDx=0;exitDy=0;entryX=0.5;entryY=0;entryDx=0;entryDy=0;" edge="1" parent="1" source="cWytQhBNAw67fKuN8wvv-54" target="cWytQhBNAw67fKuN8wvv-47">
          <mxGeometry width="50" height="50" relative="1" as="geometry">
            <mxPoint x="738.25" y="724.5" as="sourcePoint" />
            <mxPoint x="848.25" y="724.5" as="targetPoint" />
          </mxGeometry>
        </mxCell>
        <mxCell id="cWytQhBNAw67fKuN8wvv-64" value="" style="group" vertex="1" connectable="0" parent="1">
          <mxGeometry x="303" y="611.75" width="120" height="60" as="geometry" />
        </mxCell>
        <mxCell id="cWytQhBNAw67fKuN8wvv-65" value="Venda" style="rounded=0;whiteSpace=wrap;html=1;" vertex="1" parent="cWytQhBNAw67fKuN8wvv-64">
          <mxGeometry width="120" height="60" as="geometry" />
        </mxCell>
        <mxCell id="cWytQhBNAw67fKuN8wvv-66" value="&lt;u&gt;Código de reserva&lt;/u&gt;" style="ellipse;whiteSpace=wrap;html=1;" vertex="1" parent="1">
          <mxGeometry x="366" y="541.5" width="80" height="60" as="geometry" />
        </mxCell>
        <mxCell id="cWytQhBNAw67fKuN8wvv-67" value="Data/hora" style="ellipse;whiteSpace=wrap;html=1;" vertex="1" parent="1">
          <mxGeometry x="271" y="541.75" width="80" height="60" as="geometry" />
        </mxCell>
        <mxCell id="cWytQhBNAw67fKuN8wvv-68" value="" style="endArrow=none;html=1;rounded=0;entryX=0.5;entryY=1;entryDx=0;entryDy=0;exitX=0.75;exitY=0;exitDx=0;exitDy=0;" edge="1" parent="1" source="cWytQhBNAw67fKuN8wvv-65" target="cWytQhBNAw67fKuN8wvv-66">
          <mxGeometry width="50" height="50" relative="1" as="geometry">
            <mxPoint x="301" y="602" as="sourcePoint" />
            <mxPoint x="381" y="582" as="targetPoint" />
          </mxGeometry>
        </mxCell>
        <mxCell id="cWytQhBNAw67fKuN8wvv-69" value="" style="endArrow=none;html=1;rounded=0;entryX=0.5;entryY=1;entryDx=0;entryDy=0;exitX=0.25;exitY=0;exitDx=0;exitDy=0;" edge="1" parent="1" source="cWytQhBNAw67fKuN8wvv-65" target="cWytQhBNAw67fKuN8wvv-67">
          <mxGeometry width="50" height="50" relative="1" as="geometry">
            <mxPoint x="431" y="657.5" as="sourcePoint" />
            <mxPoint x="431" y="597.5" as="targetPoint" />
          </mxGeometry>
        </mxCell>
        <mxCell id="cWytQhBNAw67fKuN8wvv-70" value="" style="group" vertex="1" connectable="0" parent="1">
          <mxGeometry x="303" y="811" width="120" height="60" as="geometry" />
        </mxCell>
        <mxCell id="cWytQhBNAw67fKuN8wvv-71" value="Comprador" style="rounded=0;whiteSpace=wrap;html=1;" vertex="1" parent="cWytQhBNAw67fKuN8wvv-70">
          <mxGeometry width="120" height="60" as="geometry" />
        </mxCell>
        <mxCell id="cWytQhBNAw67fKuN8wvv-72" value="" style="endArrow=none;html=1;rounded=0;entryX=0.5;entryY=0;entryDx=0;entryDy=0;exitX=0.25;exitY=1;exitDx=0;exitDy=0;" edge="1" parent="1" source="cWytQhBNAw67fKuN8wvv-71" target="cWytQhBNAw67fKuN8wvv-73">
          <mxGeometry width="50" height="50" relative="1" as="geometry">
            <mxPoint x="281" y="807.83" as="sourcePoint" />
            <mxPoint x="361" y="787.83" as="targetPoint" />
          </mxGeometry>
        </mxCell>
        <mxCell id="cWytQhBNAw67fKuN8wvv-73" value="&lt;u&gt;NIF&lt;/u&gt;" style="ellipse;whiteSpace=wrap;html=1;" vertex="1" parent="1">
          <mxGeometry x="271" y="891.5" width="80" height="60" as="geometry" />
        </mxCell>
        <mxCell id="cWytQhBNAw67fKuN8wvv-74" value="Nome completo" style="ellipse;whiteSpace=wrap;html=1;" vertex="1" parent="1">
          <mxGeometry x="376" y="891.5000000000001" width="80" height="60" as="geometry" />
        </mxCell>
        <mxCell id="cWytQhBNAw67fKuN8wvv-75" value="" style="endArrow=none;html=1;rounded=0;entryX=0.5;entryY=0;entryDx=0;entryDy=0;exitX=0.75;exitY=1;exitDx=0;exitDy=0;" edge="1" parent="1" source="cWytQhBNAw67fKuN8wvv-71" target="cWytQhBNAw67fKuN8wvv-74">
          <mxGeometry width="50" height="50" relative="1" as="geometry">
            <mxPoint x="411" y="863.33" as="sourcePoint" />
            <mxPoint x="411" y="803.33" as="targetPoint" />
          </mxGeometry>
        </mxCell>
        <mxCell id="cWytQhBNAw67fKuN8wvv-76" value="" style="group" vertex="1" connectable="0" parent="1">
          <mxGeometry x="333" y="715.25" width="58" height="56.5" as="geometry" />
        </mxCell>
        <mxCell id="cWytQhBNAw67fKuN8wvv-77" value="" style="rounded=0;whiteSpace=wrap;html=1;strokeColor=default;dashed=1;" vertex="1" parent="cWytQhBNAw67fKuN8wvv-76">
          <mxGeometry width="58" height="56.5" as="geometry" />
        </mxCell>
        <mxCell id="cWytQhBNAw67fKuN8wvv-78" value="" style="rhombus;whiteSpace=wrap;html=1;strokeColor=default;align=center;verticalAlign=top;fontFamily=Helvetica;fontSize=12;fontColor=default;fillColor=#FFFFFF;" vertex="1" parent="cWytQhBNAw67fKuN8wvv-76">
          <mxGeometry x="4" y="3.25" width="50" height="50" as="geometry" />
        </mxCell>
        <mxCell id="cWytQhBNAw67fKuN8wvv-79" value="" style="group;strokeColor=none;rotation=90;allowArrows=0;connectable=1;dashed=1;" vertex="1" connectable="0" parent="1">
          <mxGeometry x="312.5" y="662.25" width="100" height="10" as="geometry" />
        </mxCell>
        <mxCell id="cWytQhBNAw67fKuN8wvv-80" value="" style="endArrow=classic;html=1;rounded=0;shape=link;" edge="1" parent="cWytQhBNAw67fKuN8wvv-79">
          <mxGeometry width="50" height="50" relative="1" as="geometry">
            <mxPoint x="49.5" y="10" as="sourcePoint" />
            <mxPoint x="50" y="48" as="targetPoint" />
          </mxGeometry>
        </mxCell>
        <mxCell id="cWytQhBNAw67fKuN8wvv-81" value="" style="verticalLabelPosition=bottom;verticalAlign=top;html=1;shape=mxgraph.basic.acute_triangle;dx=0.5;rotation=180;fillColor=#000000;" vertex="1" parent="cWytQhBNAw67fKuN8wvv-79">
          <mxGeometry x="45" y="48" width="9.30232558139535" height="7" as="geometry" />
        </mxCell>
        <mxCell id="cWytQhBNAw67fKuN8wvv-82" value="" style="group;strokeColor=none;rotation=-90;allowArrows=0;connectable=1;dashed=1;" vertex="1" connectable="0" parent="1">
          <mxGeometry x="312" y="815.25" width="100" height="10" as="geometry" />
        </mxCell>
        <mxCell id="cWytQhBNAw67fKuN8wvv-83" value="" style="endArrow=classic;html=1;rounded=0;shape=link;" edge="1" parent="cWytQhBNAw67fKuN8wvv-82">
          <mxGeometry width="50" height="50" relative="1" as="geometry">
            <mxPoint x="50" y="-4" as="sourcePoint" />
            <mxPoint x="49.99999999999999" y="-38" as="targetPoint" />
          </mxGeometry>
        </mxCell>
        <mxCell id="cWytQhBNAw67fKuN8wvv-84" value="" style="verticalLabelPosition=bottom;verticalAlign=top;html=1;shape=mxgraph.basic.acute_triangle;dx=0.5;rotation=0;fillColor=#000000;" vertex="1" parent="cWytQhBNAw67fKuN8wvv-82">
          <mxGeometry x="45.349999999999994" y="-45" width="9.30232558139535" height="7" as="geometry" />
        </mxCell>
        <mxCell id="cWytQhBNAw67fKuN8wvv-85" value="Venda Online" style="rounded=0;whiteSpace=wrap;html=1;direction=east;" vertex="1" parent="1">
          <mxGeometry x="555" y="557.25" width="120" height="60" as="geometry" />
        </mxCell>
        <mxCell id="cWytQhBNAw67fKuN8wvv-86" value="Venda em Balcão" style="rounded=0;whiteSpace=wrap;html=1;direction=east;" vertex="1" parent="1">
          <mxGeometry x="555" y="672.5" width="120" height="60" as="geometry" />
        </mxCell>
        <mxCell id="cWytQhBNAw67fKuN8wvv-87" value="" style="group;direction=east;rotation=0;" vertex="1" connectable="0" parent="1">
          <mxGeometry x="493" y="582.25" width="60" height="120" as="geometry" />
        </mxCell>
        <mxCell id="cWytQhBNAw67fKuN8wvv-88" value="" style="group;rotation=-180;" vertex="1" connectable="0" parent="1">
          <mxGeometry x="458" y="618.25" width="35.000000000000014" height="46.67" as="geometry" />
        </mxCell>
        <mxCell id="cWytQhBNAw67fKuN8wvv-89" value="" style="triangle;whiteSpace=wrap;html=1;rotation=-540;" vertex="1" parent="cWytQhBNAw67fKuN8wvv-88">
          <mxGeometry width="35" height="46.67" as="geometry" />
        </mxCell>
        <mxCell id="cWytQhBNAw67fKuN8wvv-90" value="" style="shape=mxgraph.sysml.x;rotation=-360;" vertex="1" parent="cWytQhBNAw67fKuN8wvv-88">
          <mxGeometry x="18" y="18" width="12.5" height="10" as="geometry" />
        </mxCell>
        <mxCell id="cWytQhBNAw67fKuN8wvv-91" value="" style="endArrow=classic;html=1;rounded=0;shape=link;entryX=0.904;entryY=0.501;entryDx=0;entryDy=0;exitX=1;exitY=0.5;exitDx=0;exitDy=0;entryPerimeter=0;" edge="1" parent="1" source="cWytQhBNAw67fKuN8wvv-65" target="cWytQhBNAw67fKuN8wvv-89">
          <mxGeometry width="50" height="50" relative="1" as="geometry">
            <mxPoint x="456" y="731.25" as="sourcePoint" />
            <mxPoint x="491" y="806" as="targetPoint" />
          </mxGeometry>
        </mxCell>
        <mxCell id="cWytQhBNAw67fKuN8wvv-92" value="" style="endArrow=none;html=1;rounded=0;exitX=-0.005;exitY=0.477;exitDx=0;exitDy=0;entryX=0.007;entryY=0.43;entryDx=0;entryDy=0;entryPerimeter=0;exitPerimeter=0;" edge="1" parent="1" source="cWytQhBNAw67fKuN8wvv-89" target="cWytQhBNAw67fKuN8wvv-85">
          <mxGeometry width="50" height="50" relative="1" as="geometry">
            <mxPoint x="493" y="642.25" as="sourcePoint" />
            <mxPoint x="553" y="582.25" as="targetPoint" />
            <Array as="points">
              <mxPoint x="518" y="642.25" />
              <mxPoint x="518" y="582.25" />
            </Array>
          </mxGeometry>
        </mxCell>
        <mxCell id="cWytQhBNAw67fKuN8wvv-93" value="" style="endArrow=none;html=1;rounded=0;entryX=0;entryY=0.5;entryDx=0;entryDy=0;exitX=0;exitY=0.479;exitDx=0;exitDy=0;exitPerimeter=0;" edge="1" parent="1" source="cWytQhBNAw67fKuN8wvv-89" target="cWytQhBNAw67fKuN8wvv-86">
          <mxGeometry width="50" height="50" relative="1" as="geometry">
            <mxPoint x="493" y="642.25" as="sourcePoint" />
            <mxPoint x="548" y="702.25" as="targetPoint" />
            <Array as="points">
              <mxPoint x="518" y="642.25" />
              <mxPoint x="518" y="702.25" />
            </Array>
          </mxGeometry>
        </mxCell>
        <mxCell id="cWytQhBNAw67fKuN8wvv-94" value="" style="group" vertex="1" connectable="0" parent="1">
          <mxGeometry x="58" y="712.2499999999999" width="120" height="60" as="geometry" />
        </mxCell>
        <mxCell id="cWytQhBNAw67fKuN8wvv-95" value="Bilhete" style="rounded=0;whiteSpace=wrap;html=1;" vertex="1" parent="cWytQhBNAw67fKuN8wvv-94">
          <mxGeometry width="120" height="60" as="geometry" />
        </mxCell>
        <mxCell id="cWytQhBNAw67fKuN8wvv-96" value="" style="rhombus;whiteSpace=wrap;html=1;strokeColor=default;align=center;verticalAlign=top;fontFamily=Helvetica;fontSize=12;fontColor=default;fillColor=#FFFFFF;" vertex="1" parent="1">
          <mxGeometry x="590" y="793.75" width="50" height="50" as="geometry" />
        </mxCell>
        <mxCell id="cWytQhBNAw67fKuN8wvv-97" value="" style="group;rotation=-180;" vertex="1" connectable="0" parent="1">
          <mxGeometry x="641" y="814.25" width="107.5" height="10" as="geometry" />
        </mxCell>
        <mxCell id="cWytQhBNAw67fKuN8wvv-98" value="" style="verticalLabelPosition=bottom;verticalAlign=top;html=1;shape=mxgraph.basic.acute_triangle;dx=0.5;rotation=-90;fillColor=#000000;" vertex="1" parent="cWytQhBNAw67fKuN8wvv-97">
          <mxGeometry x="-1" y="1" width="10" height="7" as="geometry" />
        </mxCell>
        <mxCell id="cWytQhBNAw67fKuN8wvv-99" value="" style="endArrow=none;html=1;rounded=0;entryX=0.5;entryY=1;entryDx=0;entryDy=0;entryPerimeter=0;exitX=0;exitY=0.5;exitDx=0;exitDy=0;" edge="1" parent="1" source="cWytQhBNAw67fKuN8wvv-47" target="cWytQhBNAw67fKuN8wvv-98">
          <mxGeometry width="50" height="50" relative="1" as="geometry">
            <mxPoint x="730" y="818.25" as="sourcePoint" />
            <mxPoint x="649" y="819.25" as="targetPoint" />
          </mxGeometry>
        </mxCell>
        <mxCell id="cWytQhBNAw67fKuN8wvv-100" value="" style="group;strokeColor=none;rotation=90;allowArrows=0;connectable=1;dashed=1;" vertex="1" connectable="0" parent="1">
          <mxGeometry x="565" y="737.25" width="100" height="10" as="geometry" />
        </mxCell>
        <mxCell id="cWytQhBNAw67fKuN8wvv-101" value="" style="endArrow=classic;html=1;rounded=0;shape=link;exitX=0.5;exitY=1;exitDx=0;exitDy=0;" edge="1" parent="cWytQhBNAw67fKuN8wvv-100" source="cWytQhBNAw67fKuN8wvv-86">
          <mxGeometry width="50" height="50" relative="1" as="geometry">
            <mxPoint x="49.5" y="-5" as="sourcePoint" />
            <mxPoint x="50" y="48" as="targetPoint" />
          </mxGeometry>
        </mxCell>
        <mxCell id="cWytQhBNAw67fKuN8wvv-102" value="" style="verticalLabelPosition=bottom;verticalAlign=top;html=1;shape=mxgraph.basic.acute_triangle;dx=0.5;rotation=180;fillColor=#000000;" vertex="1" parent="cWytQhBNAw67fKuN8wvv-100">
          <mxGeometry x="45.35" y="48" width="9.30232558139535" height="7" as="geometry" />
        </mxCell>
        <mxCell id="cWytQhBNAw67fKuN8wvv-103" value="" style="rhombus;whiteSpace=wrap;html=1;strokeColor=default;align=center;verticalAlign=top;fontFamily=Helvetica;fontSize=12;fontColor=default;fillColor=#FFFFFF;" vertex="1" parent="1">
          <mxGeometry x="219" y="717.25" width="50" height="50" as="geometry" />
        </mxCell>
        <mxCell id="cWytQhBNAw67fKuN8wvv-104" value="" style="group;direction=west;rotation=-180;" vertex="1" connectable="0" parent="1">
          <mxGeometry x="-15" y="718.58" width="35" height="46.66999999999996" as="geometry" />
        </mxCell>
        <mxCell id="cWytQhBNAw67fKuN8wvv-105" value="" style="group" vertex="1" connectable="0" parent="cWytQhBNAw67fKuN8wvv-104">
          <mxGeometry x="-7.105427357601002e-15" y="-3.552713678800501e-15" width="35.000000000000014" height="46.67" as="geometry" />
        </mxCell>
        <mxCell id="cWytQhBNAw67fKuN8wvv-106" value="" style="triangle;whiteSpace=wrap;html=1;rotation=-360;" vertex="1" parent="cWytQhBNAw67fKuN8wvv-105">
          <mxGeometry x="7.105427357601002e-15" y="3.552713678800501e-15" width="35" height="46.67" as="geometry" />
        </mxCell>
        <mxCell id="cWytQhBNAw67fKuN8wvv-107" value="" style="shape=mxgraph.sysml.x;rotation=-180;" vertex="1" parent="cWytQhBNAw67fKuN8wvv-105">
          <mxGeometry x="5.000000000000007" y="19.000000000000004" width="12.5" height="10" as="geometry" />
        </mxCell>
        <mxCell id="cWytQhBNAw67fKuN8wvv-108" value="" style="group;direction=east;rotation=-180;" vertex="1" connectable="0" parent="1">
          <mxGeometry x="-66.75" y="682.25" width="60" height="120" as="geometry" />
        </mxCell>
        <mxCell id="cWytQhBNAw67fKuN8wvv-109" value="Classe 2" style="rounded=0;whiteSpace=wrap;html=1;direction=east;" vertex="1" parent="1">
          <mxGeometry x="-175" y="652.25" width="120" height="60" as="geometry" />
        </mxCell>
        <mxCell id="cWytQhBNAw67fKuN8wvv-110" value="" style="endArrow=none;html=1;rounded=0;entryX=1;entryY=0.5;entryDx=0;entryDy=0;exitX=0;exitY=0.5;exitDx=0;exitDy=0;" edge="1" parent="1" source="cWytQhBNAw67fKuN8wvv-106" target="cWytQhBNAw67fKuN8wvv-109">
          <mxGeometry width="50" height="50" relative="1" as="geometry">
            <mxPoint x="-6.75" y="742.25" as="sourcePoint" />
            <mxPoint x="-61.75" y="682.25" as="targetPoint" />
            <Array as="points">
              <mxPoint x="-31.75" y="742.25" />
              <mxPoint x="-31.75" y="682.25" />
            </Array>
          </mxGeometry>
        </mxCell>
        <mxCell id="cWytQhBNAw67fKuN8wvv-111" value="Classe 1" style="rounded=0;whiteSpace=wrap;html=1;direction=east;" vertex="1" parent="1">
          <mxGeometry x="-175" y="772.25" width="120" height="60" as="geometry" />
        </mxCell>
        <mxCell id="cWytQhBNAw67fKuN8wvv-112" value="" style="endArrow=none;html=1;rounded=0;exitX=0;exitY=0.5;exitDx=0;exitDy=0;entryX=1;entryY=0.5;entryDx=0;entryDy=0;" edge="1" parent="1" source="cWytQhBNAw67fKuN8wvv-106" target="cWytQhBNAw67fKuN8wvv-111">
          <mxGeometry width="50" height="50" relative="1" as="geometry">
            <mxPoint x="-6.75" y="742.25" as="sourcePoint" />
            <mxPoint x="-66.75" y="802.25" as="targetPoint" />
            <Array as="points">
              <mxPoint x="-31.75" y="742.25" />
              <mxPoint x="-31.75" y="802.25" />
            </Array>
          </mxGeometry>
        </mxCell>
        <mxCell id="cWytQhBNAw67fKuN8wvv-113" value="Bagagem?" style="ellipse;whiteSpace=wrap;html=1;" vertex="1" parent="1">
          <mxGeometry x="-155" y="548.25" width="80" height="60" as="geometry" />
        </mxCell>
        <mxCell id="cWytQhBNAw67fKuN8wvv-114" value="" style="endArrow=none;html=1;rounded=0;entryX=0.5;entryY=1;entryDx=0;entryDy=0;exitX=0.5;exitY=0;exitDx=0;exitDy=0;" edge="1" parent="1" source="cWytQhBNAw67fKuN8wvv-109" target="cWytQhBNAw67fKuN8wvv-113">
          <mxGeometry width="50" height="50" relative="1" as="geometry">
            <mxPoint x="-33.25" y="1051.5" as="sourcePoint" />
            <mxPoint x="-40.25" y="605.5" as="targetPoint" />
            <Array as="points" />
          </mxGeometry>
        </mxCell>
        <mxCell id="cWytQhBNAw67fKuN8wvv-115" value="" style="endArrow=classic;html=1;rounded=0;shape=link;entryX=0;entryY=0.5;entryDx=0;entryDy=0;exitX=0.91;exitY=0.496;exitDx=0;exitDy=0;exitPerimeter=0;" edge="1" parent="1" source="cWytQhBNAw67fKuN8wvv-106" target="cWytQhBNAw67fKuN8wvv-95">
          <mxGeometry width="50" height="50" relative="1" as="geometry">
            <mxPoint x="19" y="742.41" as="sourcePoint" />
            <mxPoint x="98" y="741.41" as="targetPoint" />
          </mxGeometry>
        </mxCell>
        <mxCell id="cWytQhBNAw67fKuN8wvv-116" value="" style="rhombus;whiteSpace=wrap;html=1;strokeColor=default;align=center;verticalAlign=top;fontFamily=Helvetica;fontSize=12;fontColor=default;fillColor=#FFFFFF;" vertex="1" parent="1">
          <mxGeometry x="83" y="541.5" width="50" height="50" as="geometry" />
        </mxCell>
        <mxCell id="cWytQhBNAw67fKuN8wvv-117" value="" style="endArrow=none;html=1;rounded=0;entryX=0.5;entryY=1;entryDx=0;entryDy=0;exitX=0.5;exitY=0;exitDx=0;exitDy=0;" edge="1" parent="1" source="cWytQhBNAw67fKuN8wvv-116" target="cWytQhBNAw67fKuN8wvv-36">
          <mxGeometry width="50" height="50" relative="1" as="geometry">
            <mxPoint x="94" y="927.66" as="sourcePoint" />
            <mxPoint x="87" y="481.65999999999997" as="targetPoint" />
            <Array as="points" />
          </mxGeometry>
        </mxCell>
        <mxCell id="cWytQhBNAw67fKuN8wvv-118" value="" style="group;strokeColor=none;rotation=-90;allowArrows=0;connectable=1;dashed=1;" vertex="1" connectable="0" parent="1">
          <mxGeometry x="58" y="638.25" width="100" height="10" as="geometry" />
        </mxCell>
        <mxCell id="cWytQhBNAw67fKuN8wvv-119" value="" style="endArrow=classic;html=1;rounded=0;shape=link;exitX=0.415;exitY=-0.002;exitDx=0;exitDy=0;exitPerimeter=0;" edge="1" parent="cWytQhBNAw67fKuN8wvv-118" source="cWytQhBNAw67fKuN8wvv-95">
          <mxGeometry width="50" height="50" relative="1" as="geometry">
            <mxPoint x="49.99999999999999" y="55" as="sourcePoint" />
            <mxPoint x="49.99999999999999" y="-38" as="targetPoint" />
          </mxGeometry>
        </mxCell>
        <mxCell id="cWytQhBNAw67fKuN8wvv-120" value="" style="verticalLabelPosition=bottom;verticalAlign=top;html=1;shape=mxgraph.basic.acute_triangle;dx=0.5;rotation=0;fillColor=#000000;" vertex="1" parent="cWytQhBNAw67fKuN8wvv-118">
          <mxGeometry x="45.349999999999994" y="-45" width="9.30232558139535" height="7" as="geometry" />
        </mxCell>
        <mxCell id="cWytQhBNAw67fKuN8wvv-121" value="" style="endArrow=classic;html=1;rounded=0;shape=link;exitX=0.959;exitY=0.497;exitDx=0;exitDy=0;exitPerimeter=0;entryX=0.008;entryY=0.471;entryDx=0;entryDy=0;entryPerimeter=0;" edge="1" parent="1" source="cWytQhBNAw67fKuN8wvv-103" target="cWytQhBNAw67fKuN8wvv-77">
          <mxGeometry width="50" height="50" relative="1" as="geometry">
            <mxPoint x="269" y="741.41" as="sourcePoint" />
            <mxPoint x="333" y="742.25" as="targetPoint" />
          </mxGeometry>
        </mxCell>
        <mxCell id="cWytQhBNAw67fKuN8wvv-122" value="" style="group;strokeColor=none;rotation=0;allowArrows=0;connectable=1;dashed=1;" vertex="1" connectable="0" parent="1">
          <mxGeometry x="117.5" y="736.75" width="100" height="10" as="geometry" />
        </mxCell>
        <mxCell id="cWytQhBNAw67fKuN8wvv-123" value="" style="endArrow=classic;html=1;rounded=0;shape=link;exitX=0.998;exitY=0.485;exitDx=0;exitDy=0;exitPerimeter=0;" edge="1" parent="cWytQhBNAw67fKuN8wvv-122" source="cWytQhBNAw67fKuN8wvv-95">
          <mxGeometry width="50" height="50" relative="1" as="geometry">
            <mxPoint y="5" as="sourcePoint" />
            <mxPoint x="93" y="5" as="targetPoint" />
          </mxGeometry>
        </mxCell>
        <mxCell id="cWytQhBNAw67fKuN8wvv-124" value="" style="verticalLabelPosition=bottom;verticalAlign=top;html=1;shape=mxgraph.basic.acute_triangle;dx=0.5;rotation=90;fillColor=#000000;" vertex="1" parent="cWytQhBNAw67fKuN8wvv-122">
          <mxGeometry x="92" y="2" width="9.30232558139535" height="7" as="geometry" />
        </mxCell>
        <mxCell id="cWytQhBNAw67fKuN8wvv-125" value="" style="group;rotation=90;" vertex="1" connectable="0" parent="1">
          <mxGeometry x="56" y="783.25" width="107.5" height="10" as="geometry" />
        </mxCell>
        <mxCell id="cWytQhBNAw67fKuN8wvv-126" value="" style="verticalLabelPosition=bottom;verticalAlign=top;html=1;shape=mxgraph.basic.acute_triangle;dx=0.5;rotation=180;fillColor=#000000;" vertex="1" parent="cWytQhBNAw67fKuN8wvv-125">
          <mxGeometry x="49" y="16" width="10" height="7" as="geometry" />
        </mxCell>
        <mxCell id="cWytQhBNAw67fKuN8wvv-127" value="" style="rhombus;whiteSpace=wrap;html=1;strokeColor=default;align=center;verticalAlign=top;fontFamily=Helvetica;fontSize=12;fontColor=default;fillColor=#FFFFFF;" vertex="1" parent="1">
          <mxGeometry x="85" y="807.75" width="50" height="50" as="geometry" />
        </mxCell>
        <mxCell id="cWytQhBNAw67fKuN8wvv-128" value="" style="endArrow=none;html=1;rounded=0;exitX=0.433;exitY=1.017;exitDx=0;exitDy=0;exitPerimeter=0;entryX=0.5;entryY=1;entryDx=0;entryDy=0;entryPerimeter=0;" edge="1" parent="1" source="cWytQhBNAw67fKuN8wvv-95" target="cWytQhBNAw67fKuN8wvv-126">
          <mxGeometry width="50" height="50" relative="1" as="geometry">
            <mxPoint x="110" y="734.25" as="sourcePoint" />
            <mxPoint x="110" y="833.25" as="targetPoint" />
          </mxGeometry>
        </mxCell>
        <mxCell id="cWytQhBNAw67fKuN8wvv-129" value="" style="rhombus;whiteSpace=wrap;html=1;strokeColor=default;align=center;verticalAlign=top;fontFamily=Helvetica;fontSize=12;fontColor=default;fillColor=#FFFFFF;" vertex="1" parent="1">
          <mxGeometry x="-94" y="886.5" width="50" height="50" as="geometry" />
        </mxCell>
        <mxCell id="cWytQhBNAw67fKuN8wvv-130" value="Talão" style="rounded=0;whiteSpace=wrap;html=1;" vertex="1" parent="1">
          <mxGeometry x="50" y="881.75" width="120" height="60" as="geometry" />
        </mxCell>
        <mxCell id="cWytQhBNAw67fKuN8wvv-131" value="" style="group;strokeColor=none;rotation=-90;allowArrows=0;connectable=1;dashed=1;" vertex="1" connectable="0" parent="1">
          <mxGeometry x="60" y="904.25" width="100" height="10" as="geometry" />
        </mxCell>
        <mxCell id="cWytQhBNAw67fKuN8wvv-132" value="" style="endArrow=classic;html=1;rounded=0;shape=link;exitX=0.5;exitY=0;exitDx=0;exitDy=0;" edge="1" parent="cWytQhBNAw67fKuN8wvv-131" source="cWytQhBNAw67fKuN8wvv-130">
          <mxGeometry width="50" height="50" relative="1" as="geometry">
            <mxPoint x="50" y="-21" as="sourcePoint" />
            <mxPoint x="49.99999999999999" y="-38" as="targetPoint" />
          </mxGeometry>
        </mxCell>
        <mxCell id="cWytQhBNAw67fKuN8wvv-133" value="" style="verticalLabelPosition=bottom;verticalAlign=top;html=1;shape=mxgraph.basic.acute_triangle;dx=0.5;rotation=0;fillColor=#000000;" vertex="1" parent="cWytQhBNAw67fKuN8wvv-131">
          <mxGeometry x="45.349999999999994" y="-45" width="9.30232558139535" height="7" as="geometry" />
        </mxCell>
        <mxCell id="cWytQhBNAw67fKuN8wvv-134" value="" style="group" vertex="1" connectable="0" parent="1">
          <mxGeometry x="-203" y="906.5" width="107.5" height="10" as="geometry" />
        </mxCell>
        <mxCell id="cWytQhBNAw67fKuN8wvv-135" value="" style="verticalLabelPosition=bottom;verticalAlign=top;html=1;shape=mxgraph.basic.acute_triangle;dx=0.5;rotation=90;fillColor=#000000;" vertex="1" parent="cWytQhBNAw67fKuN8wvv-134">
          <mxGeometry x="99" y="1.5" width="10" height="7" as="geometry" />
        </mxCell>
        <mxCell id="cWytQhBNAw67fKuN8wvv-136" value="" style="endArrow=none;html=1;rounded=0;entryX=0.5;entryY=1;entryDx=0;entryDy=0;entryPerimeter=0;exitX=1;exitY=0.5;exitDx=0;exitDy=0;" edge="1" parent="1" source="cWytQhBNAw67fKuN8wvv-21" target="cWytQhBNAw67fKuN8wvv-135">
          <mxGeometry width="50" height="50" relative="1" as="geometry">
            <mxPoint x="-203" y="911.44" as="sourcePoint" />
            <mxPoint x="-103" y="911.44" as="targetPoint" />
          </mxGeometry>
        </mxCell>
        <mxCell id="cWytQhBNAw67fKuN8wvv-137" value="" style="group;strokeColor=none;rotation=-180;allowArrows=0;connectable=1;dashed=1;" vertex="1" connectable="0" parent="1">
          <mxGeometry x="-42.75" y="907" width="100" height="10" as="geometry" />
        </mxCell>
        <mxCell id="cWytQhBNAw67fKuN8wvv-138" value="" style="endArrow=classic;html=1;rounded=0;shape=link;exitX=0;exitY=0.5;exitDx=0;exitDy=0;" edge="1" parent="cWytQhBNAw67fKuN8wvv-137" source="cWytQhBNAw67fKuN8wvv-130">
          <mxGeometry width="50" height="50" relative="1" as="geometry">
            <mxPoint x="100" y="5" as="sourcePoint" />
            <mxPoint x="7" y="5" as="targetPoint" />
          </mxGeometry>
        </mxCell>
        <mxCell id="cWytQhBNAw67fKuN8wvv-139" value="" style="verticalLabelPosition=bottom;verticalAlign=top;html=1;shape=mxgraph.basic.acute_triangle;dx=0.5;rotation=-90;fillColor=#000000;" vertex="1" parent="cWytQhBNAw67fKuN8wvv-137">
          <mxGeometry x="-1" y="1" width="9.30232558139535" height="7" as="geometry" />
        </mxCell>
        <mxCell id="cWytQhBNAw67fKuN8wvv-140" value="Preço" style="ellipse;whiteSpace=wrap;html=1;" vertex="1" parent="1">
          <mxGeometry x="204" y="631" width="80" height="60" as="geometry" />
        </mxCell>
        <mxCell id="cWytQhBNAw67fKuN8wvv-141" value="" style="endArrow=none;html=1;rounded=0;entryX=0.5;entryY=1;entryDx=0;entryDy=0;exitX=0.5;exitY=0;exitDx=0;exitDy=0;" edge="1" parent="1" source="cWytQhBNAw67fKuN8wvv-103" target="cWytQhBNAw67fKuN8wvv-140">
          <mxGeometry width="50" height="50" relative="1" as="geometry">
            <mxPoint x="264" y="702.25" as="sourcePoint" />
            <mxPoint x="217" y="702.25" as="targetPoint" />
          </mxGeometry>
        </mxCell>
        <mxCell id="cWytQhBNAw67fKuN8wvv-142" value="" style="rhombus;whiteSpace=wrap;html=1;strokeColor=default;align=center;verticalAlign=top;fontFamily=Helvetica;fontSize=12;fontColor=default;fillColor=#FFFFFF;" vertex="1" parent="1">
          <mxGeometry x="908" y="793.25" width="50" height="50" as="geometry" />
        </mxCell>
        <mxCell id="cWytQhBNAw67fKuN8wvv-143" value="Tempo de voo" style="ellipse;whiteSpace=wrap;html=1;" vertex="1" parent="1">
          <mxGeometry x="893" y="695.25" width="80" height="60" as="geometry" />
        </mxCell>
        <mxCell id="cWytQhBNAw67fKuN8wvv-144" value="" style="endArrow=none;html=1;rounded=0;exitX=1;exitY=0.5;exitDx=0;exitDy=0;entryX=0;entryY=0.5;entryDx=0;entryDy=0;" edge="1" parent="1" source="cWytQhBNAw67fKuN8wvv-47" target="cWytQhBNAw67fKuN8wvv-142">
          <mxGeometry width="50" height="50" relative="1" as="geometry">
            <mxPoint x="892.05" y="806.21" as="sourcePoint" />
            <mxPoint x="892.05" y="902.21" as="targetPoint" />
          </mxGeometry>
        </mxCell>
        <mxCell id="cWytQhBNAw67fKuN8wvv-145" value="" style="endArrow=none;html=1;rounded=0;exitX=0.5;exitY=1;exitDx=0;exitDy=0;entryX=0.5;entryY=0;entryDx=0;entryDy=0;" edge="1" parent="1" source="cWytQhBNAw67fKuN8wvv-143" target="cWytQhBNAw67fKuN8wvv-142">
          <mxGeometry width="50" height="50" relative="1" as="geometry">
            <mxPoint x="860" y="829.25" as="sourcePoint" />
            <mxPoint x="918" y="828.25" as="targetPoint" />
          </mxGeometry>
        </mxCell>
        <mxCell id="cWytQhBNAw67fKuN8wvv-146" value="" style="endArrow=none;html=1;rounded=0;exitX=0.5;exitY=1;exitDx=0;exitDy=0;entryX=0.75;entryY=1;entryDx=0;entryDy=0;" edge="1" parent="1" source="cWytQhBNAw67fKuN8wvv-142" target="cWytQhBNAw67fKuN8wvv-47">
          <mxGeometry width="50" height="50" relative="1" as="geometry">
            <mxPoint x="932.81" y="853.5" as="sourcePoint" />
            <mxPoint x="796" y="873.25" as="targetPoint" />
            <Array as="points">
              <mxPoint x="933" y="873.25" />
              <mxPoint x="820" y="873.25" />
            </Array>
          </mxGeometry>
        </mxCell>
      </root>
    </mxGraphModel>
  </diagram>
</mxfile>
